<mxfile host="app.diagrams.net" agent="Mozilla/5.0 (Windows NT 10.0; Win64; x64) AppleWebKit/537.36 (KHTML, like Gecko) Chrome/130.0.0.0 Safari/537.36 Edg/130.0.0.0" version="24.8.3">
  <diagram name="Seite-1" id="PDan1kP4xHw6VnlhOT6z">
    <mxGraphModel dx="1426" dy="781" grid="1" gridSize="10" guides="1" tooltips="1" connect="1" arrows="1" fold="1" page="1" pageScale="1" pageWidth="827" pageHeight="1169" math="0" shadow="0">
      <root>
        <mxCell id="0" />
        <mxCell id="1" parent="0" />
        <mxCell id="T3h6hHKUy7XFf8rK5i96-66" style="edgeStyle=orthogonalEdgeStyle;rounded=0;orthogonalLoop=1;jettySize=auto;html=1;exitX=0.5;exitY=1;exitDx=0;exitDy=0;" parent="1" source="T3h6hHKUy7XFf8rK5i96-2" target="T3h6hHKUy7XFf8rK5i96-4" edge="1">
          <mxGeometry relative="1" as="geometry" />
        </mxCell>
        <mxCell id="T3h6hHKUy7XFf8rK5i96-68" style="edgeStyle=orthogonalEdgeStyle;rounded=0;orthogonalLoop=1;jettySize=auto;html=1;exitX=0.5;exitY=1;exitDx=0;exitDy=0;" parent="1" source="T3h6hHKUy7XFf8rK5i96-2" target="T3h6hHKUy7XFf8rK5i96-61" edge="1">
          <mxGeometry relative="1" as="geometry" />
        </mxCell>
        <mxCell id="T3h6hHKUy7XFf8rK5i96-2" value="" style="ellipse;html=1;shape=startState;fillColor=#000000;strokeColor=#ff0000;" parent="1" vertex="1">
          <mxGeometry x="420" y="20" width="30" height="30" as="geometry" />
        </mxCell>
        <mxCell id="T3h6hHKUy7XFf8rK5i96-30" style="edgeStyle=orthogonalEdgeStyle;rounded=0;orthogonalLoop=1;jettySize=auto;html=1;exitX=0.5;exitY=1;exitDx=0;exitDy=0;entryX=0.5;entryY=0;entryDx=0;entryDy=0;" parent="1" source="T3h6hHKUy7XFf8rK5i96-6" target="T3h6hHKUy7XFf8rK5i96-22" edge="1">
          <mxGeometry relative="1" as="geometry" />
        </mxCell>
        <mxCell id="T3h6hHKUy7XFf8rK5i96-6" value="&lt;font style=&quot;font-size: 14px;&quot;&gt;Warte auf Updates&lt;/font&gt;" style="rounded=1;whiteSpace=wrap;html=1;arcSize=40;fontColor=#000000;fillColor=#ffffc0;strokeColor=#ff0000;" parent="1" vertex="1">
          <mxGeometry x="127" y="200" width="120" height="40" as="geometry" />
        </mxCell>
        <mxCell id="T3h6hHKUy7XFf8rK5i96-31" style="edgeStyle=orthogonalEdgeStyle;rounded=0;orthogonalLoop=1;jettySize=auto;html=1;exitX=1;exitY=0.5;exitDx=0;exitDy=0;entryX=0;entryY=0.5;entryDx=0;entryDy=0;" parent="1" source="T3h6hHKUy7XFf8rK5i96-22" target="T3h6hHKUy7XFf8rK5i96-26" edge="1">
          <mxGeometry relative="1" as="geometry" />
        </mxCell>
        <mxCell id="T3h6hHKUy7XFf8rK5i96-32" value="Ja" style="edgeLabel;html=1;align=center;verticalAlign=middle;resizable=0;points=[];fontSize=14;" parent="T3h6hHKUy7XFf8rK5i96-31" vertex="1" connectable="0">
          <mxGeometry x="-0.1143" relative="1" as="geometry">
            <mxPoint as="offset" />
          </mxGeometry>
        </mxCell>
        <mxCell id="T3h6hHKUy7XFf8rK5i96-34" style="edgeStyle=orthogonalEdgeStyle;rounded=0;orthogonalLoop=1;jettySize=auto;html=1;exitX=0.5;exitY=1;exitDx=0;exitDy=0;" parent="1" source="T3h6hHKUy7XFf8rK5i96-22" edge="1">
          <mxGeometry relative="1" as="geometry">
            <mxPoint x="186" y="640" as="targetPoint" />
          </mxGeometry>
        </mxCell>
        <mxCell id="T3h6hHKUy7XFf8rK5i96-35" value="Nein" style="edgeLabel;html=1;align=center;verticalAlign=middle;resizable=0;points=[];fontSize=14;" parent="T3h6hHKUy7XFf8rK5i96-34" vertex="1" connectable="0">
          <mxGeometry x="-0.0154" y="-1" relative="1" as="geometry">
            <mxPoint as="offset" />
          </mxGeometry>
        </mxCell>
        <mxCell id="T3h6hHKUy7XFf8rK5i96-22" value="" style="rhombus;whiteSpace=wrap;html=1;fontColor=#000000;fillColor=#ffffc0;strokeColor=#ff0000;" parent="1" vertex="1">
          <mxGeometry x="162" y="270" width="48" height="40" as="geometry" />
        </mxCell>
        <mxCell id="T3h6hHKUy7XFf8rK5i96-25" value="&lt;font style=&quot;font-size: 14px;&quot;&gt;Neue Positionen erhalten?&lt;/font&gt;" style="text;html=1;align=center;verticalAlign=middle;whiteSpace=wrap;rounded=0;" parent="1" vertex="1">
          <mxGeometry x="60" y="275" width="90.5" height="35" as="geometry" />
        </mxCell>
        <mxCell id="T3h6hHKUy7XFf8rK5i96-28" style="edgeStyle=orthogonalEdgeStyle;rounded=0;orthogonalLoop=1;jettySize=auto;html=1;exitX=0.5;exitY=1;exitDx=0;exitDy=0;entryX=0.5;entryY=0;entryDx=0;entryDy=0;" parent="1" source="T3h6hHKUy7XFf8rK5i96-26" target="T3h6hHKUy7XFf8rK5i96-27" edge="1">
          <mxGeometry relative="1" as="geometry" />
        </mxCell>
        <mxCell id="T3h6hHKUy7XFf8rK5i96-26" value="&lt;span style=&quot;font-size: 14px;&quot;&gt;Speichere die Positionen als neue Zielpositionen&lt;/span&gt;" style="rounded=1;whiteSpace=wrap;html=1;arcSize=40;fontColor=#000000;fillColor=#ffffc0;strokeColor=#ff0000;" parent="1" vertex="1">
          <mxGeometry x="280" y="250.62" width="150" height="78.75" as="geometry" />
        </mxCell>
        <mxCell id="T3h6hHKUy7XFf8rK5i96-4" value="" style="shape=line;html=1;strokeWidth=6;strokeColor=#ff0000;" parent="1" vertex="1">
          <mxGeometry x="100" y="130" width="300" height="10" as="geometry" />
        </mxCell>
        <mxCell id="ZHyadWLV6Om8hqsEOn7n-2" style="edgeStyle=orthogonalEdgeStyle;rounded=0;orthogonalLoop=1;jettySize=auto;html=1;exitX=0.5;exitY=1;exitDx=0;exitDy=0;entryX=0.5;entryY=0;entryDx=0;entryDy=0;" edge="1" parent="1" source="T3h6hHKUy7XFf8rK5i96-27" target="ZHyadWLV6Om8hqsEOn7n-1">
          <mxGeometry relative="1" as="geometry" />
        </mxCell>
        <mxCell id="T3h6hHKUy7XFf8rK5i96-27" value="&lt;font style=&quot;font-size: 14px;&quot;&gt;Ermittle die Zeit zwischen den 2 letzten Updates&lt;/font&gt;" style="rounded=1;whiteSpace=wrap;html=1;arcSize=40;fontColor=#000000;fillColor=#ffffc0;strokeColor=#ff0000;" parent="1" vertex="1">
          <mxGeometry x="296" y="360" width="120" height="80" as="geometry" />
        </mxCell>
        <mxCell id="ZHyadWLV6Om8hqsEOn7n-20" style="edgeStyle=orthogonalEdgeStyle;rounded=0;orthogonalLoop=1;jettySize=auto;html=1;exitX=0.5;exitY=1;exitDx=0;exitDy=0;" edge="1" parent="1" source="T3h6hHKUy7XFf8rK5i96-46" target="T3h6hHKUy7XFf8rK5i96-62">
          <mxGeometry relative="1" as="geometry" />
        </mxCell>
        <mxCell id="T3h6hHKUy7XFf8rK5i96-46" value="&lt;font style=&quot;font-size: 14px;&quot;&gt;Bewege die Schlange um den berechneten Bewegungsfaktor in Richtung der Zielpositionen&lt;/font&gt;" style="rounded=1;whiteSpace=wrap;html=1;arcSize=40;fontColor=#000000;fillColor=#ffffc0;strokeColor=#ff0000;" parent="1" vertex="1">
          <mxGeometry x="555" y="410" width="170" height="180" as="geometry" />
        </mxCell>
        <mxCell id="T3h6hHKUy7XFf8rK5i96-58" style="rounded=0;orthogonalLoop=1;jettySize=auto;html=1;exitX=0.5;exitY=1;exitDx=0;exitDy=0;entryX=0.501;entryY=0.5;entryDx=0;entryDy=0;entryPerimeter=0;" parent="1" edge="1">
          <mxGeometry relative="1" as="geometry">
            <mxPoint x="186" y="138" as="sourcePoint" />
            <mxPoint x="186.5" y="200" as="targetPoint" />
          </mxGeometry>
        </mxCell>
        <mxCell id="T3h6hHKUy7XFf8rK5i96-59" style="rounded=0;orthogonalLoop=1;jettySize=auto;html=1;exitX=0.5;exitY=1;exitDx=0;exitDy=0;entryX=0.5;entryY=0;entryDx=0;entryDy=0;" parent="1" edge="1" target="T3h6hHKUy7XFf8rK5i96-46">
          <mxGeometry relative="1" as="geometry">
            <mxPoint x="640" y="137" as="sourcePoint" />
            <mxPoint x="641" y="202" as="targetPoint" />
          </mxGeometry>
        </mxCell>
        <mxCell id="T3h6hHKUy7XFf8rK5i96-61" value="" style="shape=line;html=1;strokeWidth=6;strokeColor=#ff0000;" parent="1" vertex="1">
          <mxGeometry x="555" y="130" width="170" height="10" as="geometry" />
        </mxCell>
        <mxCell id="T3h6hHKUy7XFf8rK5i96-62" value="" style="shape=line;html=1;strokeWidth=6;strokeColor=#ff0000;" parent="1" vertex="1">
          <mxGeometry x="555" y="890" width="170" height="10" as="geometry" />
        </mxCell>
        <mxCell id="ZHyadWLV6Om8hqsEOn7n-15" style="edgeStyle=orthogonalEdgeStyle;rounded=0;orthogonalLoop=1;jettySize=auto;html=1;exitX=0.5;exitY=1;exitDx=0;exitDy=0;" edge="1" parent="1" source="ZHyadWLV6Om8hqsEOn7n-1" target="ZHyadWLV6Om8hqsEOn7n-3">
          <mxGeometry relative="1" as="geometry" />
        </mxCell>
        <mxCell id="ZHyadWLV6Om8hqsEOn7n-1" value="&lt;span style=&quot;font-size: 14px;&quot;&gt;Ermittle einen Bewegungsfaktor aufgrund der Zeit&lt;/span&gt;" style="rounded=1;whiteSpace=wrap;html=1;arcSize=40;fontColor=#000000;fillColor=#ffffc0;strokeColor=#ff0000;" vertex="1" parent="1">
          <mxGeometry x="296" y="480" width="120" height="80" as="geometry" />
        </mxCell>
        <mxCell id="ZHyadWLV6Om8hqsEOn7n-8" style="edgeStyle=orthogonalEdgeStyle;rounded=0;orthogonalLoop=1;jettySize=auto;html=1;exitX=0.5;exitY=1;exitDx=0;exitDy=0;entryX=0.5;entryY=0;entryDx=0;entryDy=0;" edge="1" parent="1" source="ZHyadWLV6Om8hqsEOn7n-3" target="ZHyadWLV6Om8hqsEOn7n-6">
          <mxGeometry relative="1" as="geometry" />
        </mxCell>
        <mxCell id="ZHyadWLV6Om8hqsEOn7n-9" value="&lt;font style=&quot;font-size: 14px;&quot;&gt;Nein&lt;/font&gt;" style="edgeLabel;html=1;align=center;verticalAlign=middle;resizable=0;points=[];" vertex="1" connectable="0" parent="ZHyadWLV6Om8hqsEOn7n-8">
          <mxGeometry x="0.02" y="1" relative="1" as="geometry">
            <mxPoint as="offset" />
          </mxGeometry>
        </mxCell>
        <mxCell id="ZHyadWLV6Om8hqsEOn7n-13" style="edgeStyle=orthogonalEdgeStyle;rounded=0;orthogonalLoop=1;jettySize=auto;html=1;exitX=1;exitY=0.5;exitDx=0;exitDy=0;entryX=0;entryY=0.5;entryDx=0;entryDy=0;" edge="1" parent="1" source="ZHyadWLV6Om8hqsEOn7n-3" target="ZHyadWLV6Om8hqsEOn7n-5">
          <mxGeometry relative="1" as="geometry" />
        </mxCell>
        <mxCell id="ZHyadWLV6Om8hqsEOn7n-14" value="&lt;font style=&quot;font-size: 14px;&quot;&gt;Ja&lt;/font&gt;" style="edgeLabel;html=1;align=center;verticalAlign=middle;resizable=0;points=[];" vertex="1" connectable="0" parent="ZHyadWLV6Om8hqsEOn7n-13">
          <mxGeometry x="0.0435" y="1" relative="1" as="geometry">
            <mxPoint as="offset" />
          </mxGeometry>
        </mxCell>
        <mxCell id="ZHyadWLV6Om8hqsEOn7n-3" value="" style="rhombus;whiteSpace=wrap;html=1;fontColor=#000000;fillColor=#ffffc0;strokeColor=#ff0000;" vertex="1" parent="1">
          <mxGeometry x="163" y="640" width="48" height="40" as="geometry" />
        </mxCell>
        <mxCell id="ZHyadWLV6Om8hqsEOn7n-4" value="&lt;font style=&quot;font-size: 14px;&quot;&gt;Schlange hat Frucht gegessen?&lt;/font&gt;" style="text;html=1;align=center;verticalAlign=middle;whiteSpace=wrap;rounded=0;" vertex="1" parent="1">
          <mxGeometry x="70" y="642.5" width="90.5" height="35" as="geometry" />
        </mxCell>
        <mxCell id="ZHyadWLV6Om8hqsEOn7n-16" style="edgeStyle=orthogonalEdgeStyle;rounded=0;orthogonalLoop=1;jettySize=auto;html=1;exitX=0.5;exitY=1;exitDx=0;exitDy=0;entryX=0.5;entryY=0;entryDx=0;entryDy=0;" edge="1" parent="1" source="ZHyadWLV6Om8hqsEOn7n-5" target="ZHyadWLV6Om8hqsEOn7n-6">
          <mxGeometry relative="1" as="geometry">
            <Array as="points">
              <mxPoint x="340" y="760" />
              <mxPoint x="187" y="760" />
            </Array>
          </mxGeometry>
        </mxCell>
        <mxCell id="ZHyadWLV6Om8hqsEOn7n-5" value="&lt;span style=&quot;font-size: 14px;&quot;&gt;Spiele Fressgeräuche ab&lt;/span&gt;" style="rounded=1;whiteSpace=wrap;html=1;arcSize=40;fontColor=#000000;fillColor=#ffffc0;strokeColor=#ff0000;" vertex="1" parent="1">
          <mxGeometry x="296" y="635" width="120" height="50" as="geometry" />
        </mxCell>
        <mxCell id="ZHyadWLV6Om8hqsEOn7n-11" style="edgeStyle=orthogonalEdgeStyle;rounded=0;orthogonalLoop=1;jettySize=auto;html=1;exitX=1;exitY=0.5;exitDx=0;exitDy=0;entryX=0;entryY=0.5;entryDx=0;entryDy=0;" edge="1" parent="1" source="ZHyadWLV6Om8hqsEOn7n-6" target="ZHyadWLV6Om8hqsEOn7n-10">
          <mxGeometry relative="1" as="geometry" />
        </mxCell>
        <mxCell id="ZHyadWLV6Om8hqsEOn7n-12" value="&lt;font style=&quot;font-size: 14px;&quot;&gt;Ja&lt;/font&gt;" style="edgeLabel;html=1;align=center;verticalAlign=middle;resizable=0;points=[];" vertex="1" connectable="0" parent="ZHyadWLV6Om8hqsEOn7n-11">
          <mxGeometry x="0.0175" y="1" relative="1" as="geometry">
            <mxPoint as="offset" />
          </mxGeometry>
        </mxCell>
        <mxCell id="ZHyadWLV6Om8hqsEOn7n-18" style="rounded=0;orthogonalLoop=1;jettySize=auto;html=1;exitX=0.5;exitY=1;exitDx=0;exitDy=0;" edge="1" parent="1">
          <mxGeometry relative="1" as="geometry">
            <mxPoint x="186" y="820" as="sourcePoint" />
            <mxPoint x="186" y="890" as="targetPoint" />
          </mxGeometry>
        </mxCell>
        <mxCell id="ZHyadWLV6Om8hqsEOn7n-19" value="&lt;font style=&quot;font-size: 14px;&quot;&gt;Nein&lt;/font&gt;" style="edgeLabel;html=1;align=center;verticalAlign=middle;resizable=0;points=[];" vertex="1" connectable="0" parent="ZHyadWLV6Om8hqsEOn7n-18">
          <mxGeometry x="-0.1143" y="1" relative="1" as="geometry">
            <mxPoint as="offset" />
          </mxGeometry>
        </mxCell>
        <mxCell id="ZHyadWLV6Om8hqsEOn7n-6" value="" style="rhombus;whiteSpace=wrap;html=1;fontColor=#000000;fillColor=#ffffc0;strokeColor=#ff0000;" vertex="1" parent="1">
          <mxGeometry x="163" y="780" width="48" height="40" as="geometry" />
        </mxCell>
        <mxCell id="ZHyadWLV6Om8hqsEOn7n-7" value="&lt;font style=&quot;font-size: 14px;&quot;&gt;Schlange ist gestorben?&lt;/font&gt;" style="text;html=1;align=center;verticalAlign=middle;whiteSpace=wrap;rounded=0;" vertex="1" parent="1">
          <mxGeometry x="70" y="782.5" width="90.5" height="35" as="geometry" />
        </mxCell>
        <mxCell id="ZHyadWLV6Om8hqsEOn7n-10" value="" style="ellipse;html=1;shape=endState;fillColor=#000000;strokeColor=#ff0000;" vertex="1" parent="1">
          <mxGeometry x="341" y="785" width="30" height="30" as="geometry" />
        </mxCell>
        <mxCell id="ZHyadWLV6Om8hqsEOn7n-17" value="" style="shape=line;html=1;strokeWidth=6;strokeColor=#ff0000;" vertex="1" parent="1">
          <mxGeometry x="90" y="890" width="300" height="10" as="geometry" />
        </mxCell>
        <mxCell id="ZHyadWLV6Om8hqsEOn7n-21" style="edgeStyle=orthogonalEdgeStyle;rounded=0;orthogonalLoop=1;jettySize=auto;html=1;exitX=0.5;exitY=1;exitDx=0;exitDy=0;" edge="1" parent="1">
          <mxGeometry relative="1" as="geometry">
            <mxPoint x="639.5" y="900" as="sourcePoint" />
            <mxPoint x="640" y="90" as="targetPoint" />
            <Array as="points">
              <mxPoint x="640" y="960" />
              <mxPoint x="771" y="960" />
            </Array>
          </mxGeometry>
        </mxCell>
        <mxCell id="ZHyadWLV6Om8hqsEOn7n-23" style="edgeStyle=orthogonalEdgeStyle;rounded=0;orthogonalLoop=1;jettySize=auto;html=1;exitX=0.5;exitY=1;exitDx=0;exitDy=0;" edge="1" parent="1">
          <mxGeometry relative="1" as="geometry">
            <mxPoint x="186.5" y="900" as="sourcePoint" />
            <mxPoint x="250" y="90" as="targetPoint" />
            <Array as="points">
              <mxPoint x="187" y="960" />
              <mxPoint x="41" y="960" />
            </Array>
          </mxGeometry>
        </mxCell>
      </root>
    </mxGraphModel>
  </diagram>
</mxfile>
